<?xml version="1.0" encoding="UTF-8" standalone="no"?>
<svg
   viewBox="0 0 512 512"
   version="1.1"
   id="svg1"
   sodipodi:docname="chromix-three.svg"
   xml:space="preserve"
   width="512"
   height="512"
   inkscape:version="1.3.2 (1:1.3.2+202311252150+091e20ef0f)"
   xmlns:inkscape="http://www.inkscape.org/namespaces/inkscape"
   xmlns:sodipodi="http://sodipodi.sourceforge.net/DTD/sodipodi-0.dtd"
   xmlns="http://www.w3.org/2000/svg"
   xmlns:svg="http://www.w3.org/2000/svg"><defs
     id="defs1" /><sodipodi:namedview
     id="namedview1"
     pagecolor="#ffffff"
     bordercolor="#666666"
     borderopacity="1.0"
     inkscape:showpageshadow="2"
     inkscape:pageopacity="0.0"
     inkscape:pagecheckerboard="0"
     inkscape:deskcolor="#d1d1d1"
     inkscape:current-layer="svg1" /><!--!Font Awesome Free 7.1.0 by @fontawesome - https://fontawesome.com License - https://fontawesome.com/license/free Copyright 2025 Fonticons, Inc.--><g
     id="g1"
     transform="matrix(0.875,0,0,0.875,82.242416,82.332034)"
     style="stroke-width:1.14286"><path
       style="fill:#1da462;fill-opacity:1;stroke-width:1.78571"
       d="m 200,302.06875 c -20,0 -38.62031,-5.51719 -55.17266,-16.55156 -16.55156,-11.03438 -28.96562,-24.82735 -37.2414,-42.06875 L 24.827344,100 C 7.5859375,131.03437 0,164.82734 0,200 c 0,50.34453 16.551562,93.79297 48.965625,131.03437 32.414063,37.24141 73.103125,59.31016 121.379685,66.89688 l 57.93125,-100.68984 c -5.51797,2.06875 -15.8625,4.82734 -28.27656,4.82734"
       id="path1-3" /><path
       style="fill:#dd5144;fill-opacity:1;stroke-width:1.78571"
       d="M 137.24141,117.24141 C 155.86172,102.75859 176.55156,96.551563 200,96.551563 H 371.72422 C 353.79297,66.207031 329.65547,44.1375 299.31016,26.896094 268.96562,8.965625 235.86172,0 200,0 168.96563,0 139.31016,6.896875 112.41406,20 85.517969,33.103125 60,52.414062 42.06875,77.241406 L 100,172.41406 c 5.51719,-22.06953 18.62031,-40.68984 37.24141,-55.17265"
       id="path2" /><path
       style="fill:#ffcd46;fill-opacity:1;stroke-width:1.78571"
       d="M 384.82734,124.82734 H 268.96562 c 20.00001,20 33.79297,46.20703 33.79297,75.17266 0,21.37969 -6.20703,40.68984 -17.93125,58.62031 L 202.06875,400 c 54.48281,-0.68984 101.37969,-20 140,-59.31016 C 380.68906,301.37969 400,254.48281 400,200 c 0,-25.51719 -4.13828,-52.41406 -15.17266,-75.17266"
       id="path3" /><path
       style="fill:#4c8bf5;fill-opacity:1;stroke-width:1.78571"
       d="m 200,124.13828 c 41.37969,0 75.86172,34.48281 75.86172,75.86172 0,41.37891 -34.48203,75.86172 -75.86172,75.86172 -41.37969,0 -75.86172,-34.48203 -75.86172,-75.86172 0,-41.37969 34.48203,-75.86172 75.86172,-75.86172"
       id="path4" /></g><path
     d="M 449.24242,33.332022 V 1.3320378 h 64 V 193.33203 h -192 v -64.00001 h 79.1 c -35.2,-39.299991 -86.30001,-63.999998 -143.10001,-63.999998 -106,0 -191.999997,85.999998 -191.999997,192.000008 0,105.99999 85.999997,192 191.999997,192 75.00002,0 140.00001,-43.00001 171.6,-105.80002 l 57.20001,28.8 c -41.99999,83.50002 -128.70001,141.00002 -228.80001,141.00002 -141.39999,0 -255.9999983,-114.60002 -255.9999983,-256 0,-141.4 114.6000083,-255.9999922 255.9999983,-255.9999922 76.49999,0 145.1,33.5999842 192.00001,86.6999832 z"
     id="path1-5"
     style="fill:#000080;stroke-width:1" /></svg>
